<svg xmlns="http://www.w3.org/2000/svg" xmlns:xlink="http://www.w3.org/1999/xlink"><symbol id="button-cart" viewBox="0 0 20 19"><path d="M19.227 7.238h-3.382L12.56.402C12.367 0 11.98-.1 11.594.101c-.386.2-.483.603-.29 1.005L14.3 7.238H5.508l2.995-6.132c.194-.402 0-.804-.29-1.005-.386-.202-.772 0-.966.301L3.961 7.238H.773A.777.777 0 0 0 0 8.042c0 .402.29.805.773.805h.193l.87 3.015c-.193.101-.29.302-.29.604 0 .402.29.703.676.703L3.865 19h12.27l1.643-5.83c.386 0 .676-.302.676-.704 0-.201-.096-.503-.29-.604l.87-3.015h.193A.777.777 0 0 0 20 8.042a.777.777 0 0 0-.773-.804ZM14.88 17.392H4.831l-1.16-4.323h12.464L14.88 17.39Zm1.546-5.831H3.188l-.773-2.815h14.783l-.773 2.815Z"/></symbol><symbol id="interior" viewBox="0 0 40 62"><path d="M15.162 37.717c-.3.995-.2 2.19 0 3.582.499 2.588 1.696 5.971 2.394 9.654h5.087c.698-3.583 1.895-6.967 2.494-9.654.3-1.393.3-2.687 0-3.582-.3-.896-.898-1.593-1.995-2.29h-5.985c-1.197.697-1.796 1.394-1.995 2.29Zm11.771 19.904H13.167c-1.297 0-2.294.995-2.294 2.19V62h18.354v-2.19c0-1.194-.998-2.189-2.294-2.189ZM34.015 2.19h-11.67C22.344.994 21.346 0 20.05 0s-2.294.995-2.294 2.19H6.085L0 27.566c.798-.498 1.596-.995 2.594-.995 1.396 0 2.194.796 2.892 1.393.699.597 1.197.796 1.397.796.299 0 .798-.299 1.496-.796.698-.498 1.596-1.393 2.893-1.393 1.297 0 2.194.796 2.893 1.393.698.497 1.197.796 1.496.796.1 0 .3-.1.598-.199.2-.1.5-.398.898-.597.499-.398 1.097-.995 1.995-1.194.3-.1.599-.1.898-.1 1.297 0 2.194.796 2.893 1.393.698.498 1.197.797 1.496.797.3 0 .798-.299 1.396-.797.699-.597 1.596-1.393 2.893-1.393 1.397 0 2.195.796 2.893 1.393.3.299.598.498.898.598.2.1.399.199.598.199.3 0 .798-.299 1.397-.896.698-.597 1.596-1.393 2.892-1.393.998 0 1.796.497 2.594.995L34.015 2.189ZM23.442 53.143h-6.883c-.699 0-1.098.497-1.098 1.094 0 .597.5 1.095 1.098 1.095h6.883c.698 0 1.097-.498 1.097-1.095.1-.597-.4-1.094-1.098-1.094Z"/><path d="M20.05 28.76c-.1 0-.3.1-.599.199-.2.1-.399.298-.598.398v3.682h2.294v-3.583c-.499-.398-.898-.696-1.097-.696Z"/></symbol><symbol id="toy" viewBox="0 0 60 60"><path d="M0 43.993 27.4 60V36.544L0 20.436v23.557Zm51.3-31.51V15c0 1.812-3.5 3.322-7.7 3.322-4.3 0-7.7-1.51-7.7-3.322v-4.127c.3 1.71 3.6 3.12 7.7 3.12 4.3 0 7.7-1.51 7.7-3.322S47.8 7.35 43.6 7.35h-1l-5-2.92v3.12c0 1.812-3.5 3.323-7.7 3.323-2.7 0-5-.604-6.4-1.51a4.36 4.36 0 0 0-.7-.605c-.4-.402-.6-.805-.6-1.208V4.53l-4.8 2.82h-1.1c-4.3 0-7.7 1.51-7.7 3.322s3.5 3.322 7.7 3.322c4.1 0 7.4-1.41 7.7-3.12V15c0 1.812-3.5 3.322-7.7 3.322-4.3 0-7.7-1.51-7.7-3.322v-2.416l-6 3.523 27.5 16.108 27.4-16.007-6.2-3.725ZM37.7 22.752c0 1.812-3.5 3.322-7.7 3.322-4.3 0-7.7-1.51-7.7-3.322v-4.128c.3 1.712 3.6 3.121 7.7 3.121s7.4-1.41 7.7-3.12v4.127Zm-5.1 13.993V60L60 43.993V20.738L32.6 36.745Zm-2.7-30.1c4.3 0 7.7-1.51 7.7-3.323C37.6 1.51 34.1 0 29.9 0c-4.3 0-7.7 1.51-7.7 3.322s3.4 3.322 7.7 3.322Z"/></symbol><symbol id="mail" viewBox="0 0 32 21"><path d="M28 0H4C1.8 0 0 1.8 0 4v13c0 2.2 1.8 4 4 4h24c2.2 0 4-1.8 4-4V4c0-2.2-1.8-4-4-4ZM2 5.3l7 5.3-7 5.3V5.3ZM30 17c0 1.1-.9 2-2 2H4c-1.1 0-2-.9-2-2l7.8-5.9 4.4 3.3c.5.4 1.2.6 1.8.6.6 0 1.3-.2 1.8-.6l4.4-3.3L30 17Zm0-1.2-7-5.3 7-5.3v10.6Zm-12.8-2.2c-.4.3-.8.4-1.2.4-.4 0-.9-.1-1.2-.4l-4.1-3.1-.8-.6L2 4c0-1.1.9-2 2-2h24c1.1 0 2 .9 2 2l-12.8 9.6Z"/></symbol><symbol id="phone" viewBox="0 0 25 24"><path d="M17.44 24h-1.11c-4.939-.593-8.568-2.864-11.189-5.728C2.521 15.408.403 11.753 0 6.716V5.333c.1-.888.504-1.481 1.109-2.074.605-.69 1.613-1.481 2.52-1.58.706 0 1.815.494 2.218 1.087.403.493.605 1.58.806 2.37.202.889.605 1.975.504 2.765-.201 1.186-1.814 1.68-2.217 2.568 1.612 3.655 4.133 6.42 7.56 8.198.806-.494 1.613-1.877 2.823-1.877.403 0 1.008.198 1.41.297.505.098.908.296 1.311.493.706.297 2.017.593 2.42 1.186.403.592.705 1.58.605 2.172-.303 1.284-2.42 2.667-3.63 3.062ZM12.6 1.481c5.948 0 10.888 4.741 10.888 10.667H25C25 5.432 19.456 0 12.6 0v1.481Z"/><path d="M12.6 9.185v1.58c.807 0 1.412.593 1.412 1.383h1.613c0-1.58-1.31-2.963-3.024-2.963ZM12.6 6.124c3.327 0 6.15 2.666 6.15 6.024h1.613c0-4.148-3.427-7.506-7.661-7.506v1.482H12.6Z"/></symbol><symbol id="cart" viewBox="0 0 21 18"><path d="M20.188 6.857h-3.55L13.188.381C12.985 0 12.58-.095 12.174.095s-.507.572-.304.953l3.145 5.81H5.783l3.145-5.81c.202-.381 0-.762-.305-.953-.406-.19-.811 0-1.014.286l-3.45 6.476H.812c-.406 0-.812.286-.812.762 0 .381.304.762.812.762h.202l.914 2.857c-.203.095-.305.286-.305.572 0 .38.305.666.71.666L4.058 18h12.884l1.725-5.524c.405 0 .71-.286.71-.667 0-.19-.102-.476-.304-.57l.912-2.858h.203c.406 0 .812-.286.812-.762 0-.476-.406-.762-.812-.762Zm-4.565 9.62H5.073L3.854 12.38h13.087l-1.319 4.095Zm1.623-5.525H3.348l-.812-2.666h15.522l-.812 2.666Z"/></symbol><symbol id="search" viewBox="0 0 18 18"><path d="m17.693 16.057-3.477-3.477c1.023-1.33 1.534-2.966 1.534-4.705C15.75 3.477 12.273 0 7.875 0S0 3.477 0 7.875s3.477 7.875 7.875 7.875c1.739 0 3.375-.614 4.704-1.534l3.478 3.477c.204.205.409.307.818.307.614 0 1.125-.511 1.125-1.125 0-.204-.102-.511-.307-.818ZM2.25 7.875c0-3.068 2.557-5.625 5.625-5.625S13.5 4.807 13.5 7.875 10.943 13.5 7.875 13.5 2.25 10.943 2.25 7.875Z"/></symbol><symbol id="footer-logo" viewBox="0 0 102 34"><path d="M19.22 21.381c-.1-2.685-.5-5.27-.5-7.956 0-2.187.4-4.375-.4-6.464 0-.199.1-.497.1-.696.2-.994-3.3-.497-3.8.497-.3.299-.5.597-.4.995 0 .1.1.199.1.298-.7 3.183-1.6 6.265-2.6 9.348-.4 1.194-.9 2.288-1.3 3.481-.6-1.094-1.2-2.188-1.6-3.381-1.4-3.381-2.6-6.862-4.3-10.144.2-1.492-3.2-1.392-3.9 0-.8 1.69-.7 3.381-.4 5.171.3 1.99.4 3.978.4 6.067 0 3.978.4 7.856.4 11.834-.4.398-.5.895-.1 1.392.2.2.4.398.6.498 1 .696 3.6.099 3.6-1.293 0-4.078-.3-8.155-.4-12.332v-1.193c.1.1.1.298.2.398.6 1.59 1.3 3.182 2.2 4.674.9 1.491 1.3 3.082 1.8 4.674-.2.199-.3.497-.2.696 0 .199.1.298.3.398.6.497 1.8.298 2.5 0 .3-.1.6-.299.8-.398.3-.2.9-.696.7-1.194 0-.099-.1-.198-.1-.298.5-1.293.7-2.585 1-3.878.3-1.393.8-2.785 1.3-4.078.1.597.1 1.194.2 1.89.2 2.585 0 5.072 0 7.558 0 .795.1 1.591.2 2.486.1.298.4 1.79.3 1.89-.8.497-.6 1.093.2 1.292.9.2 2.1-.1 2.8-.696 1.2-1.094.6-2.784.4-4.177-.5-2.386 0-4.972-.1-7.359Zm8.4.697c-.1-1.99-.8-3.879-.8-5.868 0-2.287.2-4.574-.2-6.862-.1-.696-4.1.1-3.9.995.3 2.088.2 4.177.2 6.364 0 1.99.5 3.879.7 5.868.3 2.088-.1 4.177.1 6.166.1.994.8 2.685.1 3.58-.4.497 1.5.298 1.6.298.8-.1 1.8-.398 2.3-.994.7-.796.2-2.387.1-3.382-.3-1.989-.1-4.176-.2-6.165Zm16.3-3.282c-2.1-2.785-5.9-.796-8.6-1.492-1.4-.398-1.4-2.287-1.4-3.381 0-1.393-.1-2.685-.3-4.078-.1-1.094 0-2.088.7-2.884.1-.1.9-.298.8-.298.4-.1.7-.1 1.1-.1 1.5-.099 4.6.2 4 2.487-.3.994 3.6.398 3.9-.597 1.2-4.575-7.3-3.68-9.7-3.083-2.2.597-4.6 1.79-4.8 4.376-.1 1.193.3 2.387.3 3.58.1 1.392-.2 2.785.3 4.077 1.1 2.984 5.5 1.591 7.8 1.691 3.8.298 2.7 5.47 2.7 7.856 0 1.293 1.2 3.382.2 4.476-.6.696-2 .696-2.8.795-.8.1-2.2.298-2.7-.497-1-1.392.1-3.78-.1-5.37-.1-.895-4.1-.1-3.9.994.3 2.586-1.4 6.066 2.4 6.564 2.4.298 5.2-.2 7.5-.895 1.2-.398 2.3-.895 3.2-1.79 1-.895.7-2.288.4-3.481-.5-3.083.9-6.464-1-8.95Zm17.4-.199c-.1-3.78-.7-7.459-.7-11.238 0-1.989-4-1.293-4 .298 0 3.58.5 7.16.7 10.74v.2c-1.9 0-3.9.198-5.9.198.2-4.574-.6-9.149-.4-13.823 0-.596-3.9-.1-3.9.995-.2 4.475.6 8.85.5 13.326-.1 2.088-.2 4.276-.3 6.364 0 1.094.2 2.188.3 3.282.1.995.5 2.288.2 3.282-.2.796 3.6.298 3.9-.696.5-1.79-.2-3.978-.4-5.768-.2-1.69 0-3.48.1-5.171 2-.1 4.1-.299 6.1 0 .1 1.392.2 2.784.3 4.077.1 1.193.2 2.287.2 3.48 0 .995.1 2.487-.2 3.481-.8 2.089 3.1 1.89 3.7.398.7-1.89.5-4.177.4-6.166-.2-2.486-.6-4.873-.6-7.26Zm16.9 4.376c-.9-2.785-2.4-5.171-3.6-7.757 1-1.89 2-3.878 2.9-5.867.8-1.79 1.4-3.78 3.1-5.072.6-.398.6-.895-.3-.995-.9-.1-2.1.2-2.8.696-1.4 1.293-2.4 2.685-3.1 4.376-.9 2.089-1.9 4.077-2.9 6.066-.1.1-.1.299-.2.398-.5.299-.8.796-.6 1.293-.8 1.591-1.6 3.083-2.5 4.575-.3-5.47-1-11.04-1.2-16.509 0-1.293-4-.497-3.9.995.2 6.862 1.2 13.624 1.3 20.486v.1c-.3.298-.2.497.1.596 0 1.79-.1 3.48-.2 5.27-.5.697.5 1.095 1.1 1.095h.1c.7 0 2.6-.299 2.7-1.393.2-2.088.3-4.176.2-6.265 1.6-1.69 2.9-3.58 4.1-5.569.8 1.492 1.5 2.984 2 4.575.9 2.685 2.3 5.27 3.1 7.956.5 1.79 4.5.696 3.9-.995-1-2.784-2.4-5.27-3.3-8.055Zm23.501-4.575c-.2-.795-1.4-.795-2.3-.795v-.995c-.1-2.685-.2-5.37-.4-7.956-.2-2.486-1.6-3.281-4-3.182-2.4.1-5.2.497-7.5 1.392-2.6.995-4.1 2.884-4.6 5.669-.5 2.983.2 6.166.4 9.149.2 3.48.1 6.961.1 10.442 0 .597 3.9 0 3.9-.994v-8.255c0-.795-.1-1.59-.1-2.386 1.4-.597 3.7 0 5.1.1 1.1.099 2.2-.2 3.2-.3 0 2.288.1 4.575.2 6.863 0 1.193.5 3.48-.4 4.475-.4.497 1.5.298 1.6.298.8-.1 1.8-.398 2.3-.994.9-1.094.5-3.78.4-5.072-.1-1.89-.1-3.78-.1-5.669 1.1-.199 2.4-.895 2.2-1.79Zm-14.6-.1c-.1-1.192-.2-2.485-.3-3.679-.2-2.287.1-5.569 2.3-6.961.6-.398 1.7-.298 2.4-.398 1-.199 2-.398 2.8.199 1.2.796.9 3.68.9 4.873 0 1.989.2 3.978.3 5.967-.6.1-1.1.1-1.7.1-2.3-.2-4.6-.597-6.7-.1ZM24.22 6.663c.5-.1 1-.199 1.5-.497l.2-.2c.5-.297 1-.795.7-1.391-.5-1.094-.4-2.188-.4-3.382C26.22.2 25.22 0 24.42 0c-.7.1-2.2.597-2.2 1.492 0 .994-.1 1.989.1 2.983 0 .1-.1.199-.1.398-.1.199 0 .398.1.597v.397c.1.2.2.398.4.498.6.298 1.1.298 1.5.298Z"/></symbol><symbol id="header-logo-desktop" viewBox="0 0 149 72"><path d="M144.16 31.105c-1.51 1.086-3.121 1.876-4.732 2.764 0-1.678-.1-3.455-.604-5.034.101-.296.101-.691.101-.987.403-2.962.705-7.009-2.013-9.082-.302-.296-1.208 0-1.913.296-.201-.197-.302-.296-.503-.395-.101-.197-.201-.493-.201-.69 0-.1-.202-.198-.403-.198.302-.395.302-.79-.403-1.086-.402-.197-.805-.296-1.107-.395-.101-.098-.101-.098-.201-.098-.906-.296-1.913-.494-2.92-.691.101-.296.403-.79.604-.988.101-.197.302-.296.403-.394l.201-.198s.101 0 .101-.098l.101-.1c.402-.295.805-.888.201-1.184-.604-.296-1.51-.099-2.013.198-.906.69-1.611 1.382-2.114 2.369-2.013-.198-4.027-.198-6.141-.099.101-.099.101-.197.101-.296.201-.592-.906-.494-1.208-.494-1.611.198-3.121.395-4.731.593 1.409-3.752 3.12-8.49 1.006-12.142-1.208-2.073-3.925-2.567-6.14-2.665-2.416-.1-4.933.493-7.047 1.58-4.831 2.566-7.147 7.6-8.254 12.93-.503-.69-2.315-.394-2.617.494-.1.296-.202.592-.302.987-.202.198-.302.395-.302.593v.197h-.202c0-.099 0-.198.101-.296.1-.099.201-.198.302-.395.604-2.27 1.208-4.54 1.913-6.713.302-.79-2.517-.394-2.819.395-.403 1.185-.805 2.37-1.107 3.554-.201.099-.403.197-.403.296v.099a.777.777 0 0 0-.503-.198v-.987c0-.395-2.819 0-2.819.79v1.58c-.201.098-.302.197-.503.296l-.201.197c-.101.099-.101.197-.101.197v.1l-.1.098c-.101.098-.202.296 0 .493.2.198.503.198.704.198h.1v.493h-.704l-.403-.098c0-.395-.704-.494-1.41-.296v-.1c-.1-.592-.2-1.184-.2-1.776.2-.099.503-.197.704-.296.202-.099.302-.198.302-.395v-.197c0-.198-.402-.198-.503-.198h-.604c-.1-1.283-.1-2.566-.1-3.85 0-.79-2.82-.296-2.82.79 0 1.777 0 3.554.202 5.232h-.302v-1.48c0-.988-1.309-1.185-2.114-.79.302-.297.503-.593.403-.988-.403-1.382-.806-2.764-1.007-4.244-.201-1.382-3.02-.691-2.819.79.202 1.48.605 2.862 1.007 4.244.201.79 1.309.888 2.114.494-.201.197-.403.493-.403.79v.591c-.302-.296-.503-.296-.906-.296-1.107 0-1.71.889-1.409 1.481-.201 0-.302-.099-.503-.099-.403-1.184-.705-2.467-.705-3.75 0-.89-1.308-.988-2.114-.692v-.197c-.402-.79-.604-1.678-.805-2.468-.302-1.283-3.221-.592-2.819.79.202.592.302 1.283.504 1.875h-.101c-.302.099-.604.198-.906.395-.805.099-1.812.592-1.812 1.185.1.493.1.987.201 1.382-.402.098-1.006.098-1.51.197a10.25 10.25 0 0 1-.603-2.37c-.101-.887-1.611-.887-2.316-.295-.805-2.073-1.812-3.949-3.12-5.726-2.718-3.356-7.248-4.54-11.375-3.652-1.913.395-3.725 1.185-5.034 2.567-1.208 1.382-1.409 3.06-1.208 4.738.202 1.48.604 3.948 1.611 5.923-.403 0-.705 0-.906.098-.302.099-.604.198-.805.395-1.913 0-3.926 0-5.839-.099-4.228-.197-8.355-.888-12.583-.69-.906 0-1.51.69-1.51 1.283a4.267 4.267 0 0 0-2.114 2.27c-1.711-1.086-3.523-2.27-5.335-3.159-.704-.394-3.322.691-2.315 1.185 1.812.888 3.624 2.073 5.335 3.159.503.296 1.309.098 1.812-.099 0 0 .1 0 .201-.099-.302 1.382-.201 3.06.202 4.442 0 .1.1.198.201.297v1.184c-.403.197-.705.494-.805.79a28.728 28.728 0 0 0-.302 4.146c-.302.197-.504.493-.504.79-.201 3.257 0 6.613.504 9.87.201 2.666.704 5.233 1.208 7.898.1.395.1.79.201 1.283-.302 1.086-.403 2.37-.201 3.455-.906.198-1.712.889-1.208 1.58.805 1.184 1.61 1.974 2.617 2.566-.604-.099-1.41.099-1.913.592-.805.79-1.711 1.481-2.516 2.27-.403.395-.302.89.302 1.087.704.197 1.51-.1 2.013-.494.805-.79 1.711-1.48 2.517-2.27.2-.198.302-.494.2-.691 3.222 1.678 7.249 1.283 11.175.888-.906 1.58-1.51 3.258-2.215 4.936-.302.69 2.517.394 2.819-.395.604-1.678 1.208-3.258 2.113-4.837 3.725.099 7.55.099 11.275.099.1.197.403.296.705.296 3.322.296 6.543-.099 9.764-.691 4.832-.198 9.664-.494 14.496-.79 7.55-.197 15.2-.296 22.75-.296l.302.296c.302.296.604.296 1.006.296h.202c.704 0 1.409.099 2.114.099.2 0 .302.099.604 0 .805.099 1.61.099 2.315.197.201.198.503.296.805.395 3.825.296 7.651.494 11.476.691.101.198.503.296.805.296 7.147.099 15.402 2.764 21.744-1.678.503-.395.302-.888-.302-.987h-.302c1.208-2.764 2.214-5.528 2.919-8.49.403-.197.604-.493.604-.888 0-1.184.201-2.369.403-3.553.201-.889.302-1.777.402-2.666.403-2.171.805-4.343 1.007-6.416 2.315-1.086 4.53-2.27 6.644-3.751 1.61-1.185-.806-1.876-1.812-1.185ZM88.392 16.298l-.1.099c.1-.296.1-.592.2-.888h.101c0 .197-.1.493-.201.79Z"/><path d="M63.729 12.547c.1.197.604.197.805.197.403 0 .806-.098 1.108-.197.402-.198 1.107-.593.805-1.086-.403-.592-.604-1.185-1.007-1.777-.1-.197-.604-.197-.805-.197-.403 0-.805.098-1.107.197-.403.198-1.108.592-.806 1.086.302.592.604 1.283 1.007 1.777ZM20.846 10.87c.201.591 1.107.591 1.61.493.504-.1 1.41-.593 1.209-1.284-.202-.592-.403-1.283-.906-1.776-.504-.494-1.309-.395-1.913-.198-.403.198-1.208.79-.705 1.283.403.593.504.889.705 1.481ZM30.912 13.83c.806 0 3.121-1.283 1.208-1.283-.906 0-3.12 1.284-1.208 1.284ZM123.423 12.251c.302.099.705 0 1.107-.098.302-.1.705-.198.906-.494.403-.395.705-.691 1.007-1.185.101-.197.201-.395 0-.592-.201-.197-.503-.197-.805-.296-.403 0-.806.099-1.108.197a1.56 1.56 0 0 0-.805.593c-.101.197-.201.395-.403.493l-.201.198c-.201.197-.302.394-.302.592.101.395.302.493.604.592ZM136.811 17.582c.604-.1 1.409-.198 1.913-.691 1.308-1.086 2.617-2.172 3.623-3.554.302-.395-1.006-.197-1.107-.197-.503.098-1.308.296-1.711.69-.906 1.284-2.215 2.27-3.423 3.357-.503.395.403.395.705.395ZM147.682 44.333h-4.932c-.604 0-1.51.494-1.611 1.086-.1.691.806.889 1.309.889h4.932c.604 0 1.51-.494 1.611-1.086.101-.691-.705-.889-1.309-.889ZM57.387 60.127c-.503.098-1.409.296-1.61.79-.504 1.283-1.007 2.566-1.41 3.85-.2.69 2.618.296 2.82-.494.402-1.283.804-2.567 1.408-3.85.202-.494-1.006-.296-1.208-.296ZM62.018 62.694c-.302 0-.705.098-1.007.197-.302.099-.705.197-1.007.395-.1.099-.301.197-.301.395v.296c0 .099-.101.197-.101.296-.1.099-.1.197 0 .296.201.099.503.099.705.099.402 0 .704-.099 1.107-.296.201-.1.604-.198.805-.395.1-.198.201-.296.302-.494v-.493c0-.297-.403-.297-.503-.297ZM117.483 66.346c-.402-.691-3.019.296-2.818.79.805 1.579 1.912 3.06 2.919 4.639.403.69 3.02-.395 2.819-.79-1.007-1.58-2.114-3.06-2.92-4.64ZM121.51 63.977c-.302-.593-1.107-.593-1.61-.395-.403.099-1.51.592-1.208 1.184.402.79.805 1.58 1.208 2.27.302.593 1.107.593 1.61.396.403-.1 1.51-.593 1.208-1.185-.402-.69-.805-1.48-1.208-2.27ZM5.746 42.654c-1.51.395-3.02.593-4.53.987-.503.1-1.308.593-1.207 1.284.2.69 1.107.69 1.71.592 1.51-.395 3.02-.592 4.53-.987.504-.099 1.31-.691 1.209-1.283-.302-.691-1.208-.691-1.712-.593Z"/><path d="M44.1 39.692c-.101-2.665-.504-5.33-.504-7.996 0-2.171.403-4.442-.402-6.515 0-.197.1-.493.1-.69.202-1.087-3.322-.494-3.825.493-.302.296-.503.592-.403.987 0 .099.101.198.101.296-.705 3.159-1.61 6.318-2.617 9.378-.403 1.184-.906 2.37-1.309 3.554-.604-1.086-1.208-2.172-1.711-3.357-1.41-3.455-2.617-6.91-4.329-10.167.202-1.48-3.22-1.382-3.926 0-.805 1.678-.704 3.356-.402 5.232.302 2.073.402 4.047.402 6.12 0 3.948.403 7.897.403 11.846-.403.394-.503.888-.1 1.382l.603.592c.906.69 3.524.099 3.524-1.284 0-4.145-.302-8.193-.403-12.339V36.04c.1.099.1.296.201.395.604 1.58 1.309 3.158 2.215 4.64.906 1.48 1.308 3.06 1.812 4.639-.202.197-.302.493-.202.69 0 .198.101.297.302.395.604.593 1.913.297 2.517 0 .302-.098.604-.296.805-.394.302-.198.906-.691.705-1.185 0-.099-.1-.197-.1-.296.503-1.283.704-2.566 1.006-3.949.302-1.382.805-2.764 1.309-4.145.1.592.1 1.283.201 1.875.201 2.567 0 5.034 0 7.601 0 .888.1 1.58.201 2.468.101.296.403 1.777.302 1.875-.604.593-.402 1.284.403 1.382.906.198 2.114-.098 2.819-.69 1.208-1.087.604-2.863.402-4.245-.604-2.37-.1-5.035-.1-7.404ZM52.556 40.384c-.101-1.974-.806-3.85-.806-5.824 0-2.27.202-4.54-.201-6.811-.1-.691-4.127.098-4.027 1.085.302 2.073.202 4.245.202 6.318 0 2.073.503 3.85.704 5.923.302 2.073-.1 4.146.101 6.219.1.987.805 2.764.1 3.554-.402.493 1.51.296 1.611.296.806-.099 1.812-.395 2.316-.987.704-.79.2-2.37.1-3.357-.201-2.27 0-4.343-.1-6.416ZM69.165 37.028c-2.114-2.764-5.94-.79-8.657-1.58-1.41-.395-1.41-2.27-1.41-3.356 0-1.382-.1-2.764-.301-4.146-.101-1.086 0-2.073.805-2.863.1-.098.906-.296.805-.296.403-.099.705-.099 1.108-.099 1.61-.098 4.73.198 4.127 2.468-.302.987 3.624.395 3.926-.592 1.208-4.54-7.45-3.652-9.865-3.06-2.215.592-4.732 1.875-4.832 4.343-.101 1.185.302 2.37.302 3.554.1 1.382-.202 2.764.302 4.146 1.107 2.961 5.637 1.58 7.851 1.777 3.926.296 2.718 5.429 2.819 7.897 0 1.283 1.208 3.455.201 4.442-.604.69-2.013.69-2.818.79-.806.098-2.215.296-2.819-.494-1.007-1.382.1-3.751-.1-5.43-.202-.986-4.228-.098-4.027.988.302 2.665-1.41 6.12 2.416 6.614 2.517.296 5.234-.198 7.65-.889a10.758 10.758 0 0 0 3.322-1.777c1.007-.888.705-2.369.403-3.553-.705-2.962.705-6.318-1.208-8.884ZM86.781 36.83c-.1-3.751-.705-7.502-.705-11.253 0-1.975-4.026-1.284-4.026.296 0 3.553.503 7.107.705 10.76v.197c-2.014 0-3.926.197-5.94.197.202-4.64-.604-9.18-.402-13.82 0-.592-3.926-.098-4.027 1.086-.201 4.442.604 8.885.504 13.327-.101 2.171-.202 4.244-.302 6.416 0 1.086.2 2.172.302 3.258.1.987.503 2.369.2 3.257-.2.79 3.625.296 3.927-.69.503-1.778-.202-4.048-.403-5.825-.201-1.678 0-3.455.1-5.232 2.014-.098 4.128-.296 6.141 0l.302 4.146c.1 1.185.202 2.27.202 3.455 0 .987.1 2.468-.202 3.455-.805 2.073 3.222 1.876 3.826.395.704-1.876.503-4.146.402-6.12-.201-2.37-.604-4.837-.604-7.305ZM103.894 41.371c-.906-2.764-2.416-5.133-3.624-7.798 1.007-1.974 2.013-3.85 3.02-5.824.805-1.777 1.51-3.85 3.121-5.035.604-.493.604-.888-.302-.987-.906-.099-2.114.198-2.819.691-1.51 1.185-2.416 2.567-3.221 4.245-1.007 2.073-1.913 4.047-3.02 6.021-.1.099-.202.297-.202.395-.503.296-.805.79-.603 1.283-.806 1.58-1.611 3.06-2.517 4.64-.302-5.528-1.007-11.056-1.208-16.584 0-1.283-4.027-.493-4.027 1.086.202 6.811 1.208 13.622 1.31 20.532v.1c-.303.295-.202.493.1.591 0 1.777-.1 3.455-.202 5.232-.503.79.504 1.086 1.108 1.086h.1c.705 0 2.618-.395 2.718-1.382.202-2.073.302-4.146.202-6.219 1.61-1.678 2.919-3.652 4.127-5.627.805 1.481 1.51 2.962 2.013 4.541.906 2.764 2.315 5.232 3.221 7.996.504 1.777 4.53.691 4.027-1.086-.906-2.665-2.315-5.232-3.322-7.897ZM127.852 36.732c-.201-.79-1.409-.889-2.315-.79v-.987c-.1-2.666-.201-5.33-.402-7.996-.202-2.468-1.611-3.356-4.027-3.258-2.416.1-5.335.494-7.651 1.382-2.617.988-4.127 2.962-4.63 5.627-.604 2.962.201 6.219.403 9.18.201 3.455.1 7.009.1 10.464 0 .592 4.027 0 4.027-1.086v-8.292c0-.79-.101-1.58-.101-2.468 1.409-.592 3.725 0 5.134.1 1.107.098 2.215-.198 3.322-.297 0 2.27.101 4.64.201 6.91 0 1.185.504 3.554-.402 4.54-.403.494 1.51.297 1.61.297.806-.099 1.812-.395 2.316-1.086 1.006-1.086.503-3.751.402-5.133-.101-1.876-.101-3.85-.101-5.725 1.007.197 2.316-.593 2.114-1.382Zm-14.898-.198c-.101-1.283-.201-2.468-.302-3.751-.201-2.37.101-5.528 2.315-7.009.604-.395 1.712-.296 2.416-.395 1.007-.197 2.014-.394 2.92.198 1.208.79.906 3.652.906 4.837 0 1.974.201 3.948.302 6.021-.604.1-1.108.1-1.712.1-2.315-.1-4.63-.396-6.845 0ZM49.133 24.984c.503-.098 1.107-.197 1.51-.493.1-.099.201-.099.302-.198.503-.296 1.006-.79.704-1.382-.503-1.085-.402-2.27-.402-3.356 0-.987-1.007-1.283-1.812-1.184-.705.098-2.215.592-2.215 1.48 0 .987-.1 1.975.1 2.962 0 .098-.1.197-.1.395-.1.197 0 .394.1.592v.395c.102.197.202.395.404.493.402.296.906.296 1.409.296Z" fill="#fff"/></symbol><symbol id="header-logo-tablet" viewBox="0 0 114 46"><path d="M110.889 41.809c4.423.898.804-35.822.1-38.217-2.01-6.586-26.842-2.096-32.371-1.697-12.768.998-25.335-.997-37.801-.399-6.233.3-35.086-1.796-37.7 1.996C-1.91 10.676.402 29.236 1.81 38.516c-4.022.798 2.312 4.19 3.116 4.89 6.334 2.194 16.488-.2 23.123.398 15.482 1.497 31.97-2.195 47.553-.997 4.524 1.097 9.65.997 14.275 1.197 3.519 5.588 19.805-2.395 21.012-2.195.503.1-.101 0 0 0Z"/><path d="M26.24 24.348c-.101-2.495-.503-5.09-.503-7.584 0-2.095.402-4.19-.302-6.186 0-.2.1-.4.1-.699.202-.998-3.116-.499-3.619.4-.301.299-.502.598-.402.897 0 .1.1.2.1.2-.602 2.993-1.507 5.987-2.512 8.88-.402 1.098-.805 2.196-1.207 3.393-.603-.998-1.106-2.095-1.608-3.193-1.307-3.293-2.514-6.586-4.122-9.679.2-1.497-3.016-1.297-3.72 0-.804 1.597-.704 3.193-.402 4.89.301 1.895.301 3.791.402 5.787 0 3.792.302 7.484.402 11.275-.301.4-.402.799-.1 1.297.2.2.301.4.502.5.905.698 3.318.1 3.318-1.198 0-3.892-.302-7.783-.402-11.675v-1.097c.1.1.1.3.2.399.604 1.497 1.207 2.993 2.112 4.39.804 1.397 1.206 2.894 1.71 4.39-.202.2-.303.4-.202.7 0 .199.1.299.201.299.603.499 1.71.299 2.413 0 .302-.1.503-.2.804-.4.302-.199.805-.598.704-1.097 0-.1-.1-.2-.1-.3.401-1.197.703-2.494.904-3.691.302-1.397.704-2.595 1.207-3.892 0 .599.1 1.197.1 1.796.201 2.395 0 4.79 0 7.184 0 .799.1 1.497.201 2.296.1.299.302 1.696.302 1.796-.603.499-.402 1.197.402 1.397.905.2 2.01-.1 2.614-.699 1.106-.998.603-2.694.301-3.991-.301-1.996.302-4.49.201-6.785ZM34.182 25.046c-.1-1.896-.704-3.692-.704-5.588 0-2.195.201-4.39-.1-6.486-.101-.698-3.82.1-3.72.998.301 1.996.2 3.991.2 5.987 0 1.896.403 3.692.704 5.588.302 1.996-.1 3.891.101 5.887.1.898.704 2.595.1 3.393-.402.499 1.408.3 1.509.3.703-.1 1.709-.4 2.211-.999.604-.798.201-2.295.1-3.193-.502-1.896-.3-3.991-.401-5.887ZM49.764 21.853c-2.01-2.594-5.63-.699-8.143-1.497-1.307-.399-1.307-2.195-1.307-3.193 0-1.397-.1-2.594-.301-3.891-.1-.998 0-1.996.703-2.794.1-.1.805-.3.805-.3.301-.1.603-.1 1.005-.1 1.508-.1 4.423.2 3.82 2.395-.301.998 3.418.4 3.72-.598 1.206-4.39-6.937-3.493-9.25-2.894-2.11.599-4.423 1.796-4.523 4.19-.1 1.198.301 2.296.301 3.393.101 1.298-.2 2.595.302 3.892 1.005 2.794 5.228 1.497 7.44 1.696 3.619.3 2.614 5.189 2.614 7.484 0 1.197 1.105 3.293.2 4.29-.603.6-1.91.7-2.613.7-.805.099-2.112.299-2.614-.4-.905-1.297.1-3.592-.1-5.089-.101-.898-3.922-.1-3.72.998.301 2.494-1.308 5.787 2.312 6.286 2.312.3 4.926-.2 7.138-.898 1.105-.399 2.211-.898 3.116-1.696 1.006-.898.704-2.195.402-3.393-.804-2.993.503-6.186-1.307-8.581ZM66.353 21.653c-.101-3.592-.704-7.084-.704-10.676 0-1.896-3.82-1.198-3.82.299 0 3.393.502 6.785.603 10.178v.2c-1.81 0-3.72.199-5.63.199.2-4.39-.603-8.78-.402-13.072 0-.598-3.72-.1-3.72.998-.201 4.191.603 8.482.402 12.673-.1 1.995-.201 3.991-.201 6.086 0 .998.201 2.096.302 3.094.1.898.502 2.195.2 3.093-.2.698 3.419.3 3.72-.699.503-1.696-.2-3.791-.402-5.488-.2-1.596 0-3.292.1-4.989 1.91-.1 3.922-.3 5.832 0l.301 3.892c.1 1.097.201 2.195.201 3.293 0 .997.1 2.395-.2 3.292-.704 1.996 3.015 1.797 3.518.3.704-1.796.503-3.992.402-5.788-.1-2.195-.502-4.59-.502-6.885ZM82.438 25.944c-.905-2.594-2.312-4.89-3.418-7.384a145.398 145.398 0 0 0 2.815-5.588c.804-1.696 1.407-3.592 2.915-4.79.503-.398.503-.798-.2-.897-.805-.1-2.012.2-2.615.698-1.407 1.098-2.312 2.395-3.016 4.091-.905 1.896-1.81 3.892-2.815 5.788-.1.1-.1.299-.2.399-.504.3-.705.698-.604 1.197-.804 1.497-1.508 2.994-2.413 4.39-.302-5.288-.905-10.477-1.106-15.765 0-1.197-3.82-.499-3.72.998.202 6.486 1.207 12.971 1.207 19.457-.302.3-.201.5.1.6 0 1.695-.1 3.292-.2 4.988-.403.699.401 1.098 1.005 1.098h.1c.704 0 2.514-.3 2.614-1.297.201-1.996.201-3.992.201-5.987 1.508-1.597 2.715-3.393 3.82-5.289.704 1.397 1.408 2.794 1.91 4.29.805 2.595 2.212 4.99 3.017 7.584.502 1.697 4.222.699 3.72-.997-.905-2.595-2.212-4.99-3.117-7.584ZM104.857 21.554c-.201-.799-1.307-.799-2.212-.699v-.998c-.1-2.494-.201-5.089-.402-7.583-.201-2.295-1.508-3.193-3.82-3.093-2.313.1-5.027.498-7.138 1.297-2.513.998-3.92 2.794-4.323 5.388-.503 2.894.201 5.887.402 8.78.1 3.294.1 6.686.1 9.98 0 .498 3.72 0 3.72-.999v-7.883c0-.798 0-1.496-.1-2.294 1.307-.6 3.519 0 4.825.1 1.106.1 2.112-.2 3.117-.3 0 2.195.1 4.39.201 6.586 0 1.097.503 3.392-.302 4.29-.402.5 1.408.3 1.508.3.805-.1 1.71-.4 2.212-.998.905-1.098.402-3.592.402-4.89-.1-1.796-.1-3.592-.1-5.388.905-.1 2.111-.798 1.91-1.596Zm-13.874-.2-.301-3.592c-.201-2.195.1-5.289 2.212-6.586.603-.399 1.608-.3 2.211-.399.905-.2 1.91-.4 2.715.2 1.106.798.904 3.492.904 4.59 0 1.895.201 3.791.302 5.687-.503.1-1.106.1-1.608.1-2.212-.1-4.424-.4-6.435 0ZM30.965 10.378c.502 0 1.005-.2 1.407-.499.1-.1.201-.1.201-.2.503-.299.905-.798.704-1.297-.503-.998-.402-2.095-.402-3.193 0-.898-.905-1.197-1.71-1.097-.703.1-2.11.598-2.11 1.397 0 .898-.101 1.895.1 2.793 0 .1-.1.2-.1.3-.101.2 0 .399.1.599v.399c.1.2.201.399.402.499.503.299 1.006.299 1.408.299Z" fill="#fff"/></symbol><symbol id="header-logo" viewBox="0 0 86 35"><path d="M4.547 26.319c0-3.5-.3-6.9-.4-10.4v-1c0 .1.1.2.1.4.5 1.4 1.1 2.7 1.8 3.9.7 1.2 1.1 2.6 1.5 3.9-.2.2-.3.4-.2.6 0 .2.1.2.2.3.5.5 1.5.2 2.1 0 .2-.1.5-.2.7-.4.3-.2.7-.6.6-1 0-.1 0-.2-.1-.2.4-1.1.6-2.2.8-3.3.2-1.2.7-2.3 1.1-3.5 0 .5.1 1 .1 1.6.2 2.1 0 4.3 0 6.4 0 .7 0 1.4.2 2.1.1.3.3 1.5.2 1.6-.5.5-.4 1.1.3 1.2.8.2 1.8-.1 2.3-.6 1-.9.5-2.4.3-3.6-.4-2 .1-4.2 0-6.2-.1-2.3-.4-4.5-.4-6.8 0-1.8.3-3.7-.3-5.5 0-.2.1-.4.1-.6.2-.9-2.8-.4-3.2.4-.3.2-.4.5-.3.8 0 .1.1.1.1.2-.6 2.7-1.3 5.3-2.2 7.9-.3 1-.7 2-1.1 3-.5-.9-1-1.9-1.4-2.8-1.2-2.9-2.2-5.8-3.6-8.6.2-1.3-2.7-1.2-3.3 0-.7 1.4-.6 2.9-.4 4.4.3 1.7.3 3.4.3 5.1 0 3.3.3 6.7.4 10-.3.3-.4.7-.1 1.2.1.2.3.3.5.5 1.2.7 3.3.2 3.3-1Zm18.2-18.4c-.1-.6-3.4.1-3.3.9.3 1.8.2 3.6.1 5.4 0 1.7.4 3.3.6 5 .2 1.7-.1 3.5.1 5.2.1.8.6 2.3.1 3-.4.4 1.2.3 1.3.3.6-.1 1.5-.3 1.9-.9.6-.7.2-2 0-2.8-.3-1.7-.1-3.5-.2-5.3-.1-1.7-.6-3.3-.7-4.9.3-2 .4-3.9.1-5.9Zm3.2 6.7c.9 2.5 4.6 1.3 6.6 1.5 3.2.2 2.3 4.6 2.3 6.6 0 1.1 1 2.9.2 3.8-.5.6-1.7.6-2.4.6-.7.1-1.9.3-2.3-.4-.8-1.2.1-3.2-.1-4.6-.1-.8-3.4-.1-3.3.9.3 2.2-1.2 5.2 2 5.6 2.1.2 4.4-.1 6.3-.8 1-.3 1.9-.8 2.7-1.5.9-.8.6-2 .4-3-.6-2.5.6-5.3-1-7.5-1.7-2.3-5-.7-7.2-1.3-1.2-.2-1.2-1.8-1.2-2.8 0-1.2-.1-2.3-.2-3.5-.1-.9 0-1.8.6-2.4.1-.1.7-.3.7-.3.3-.1.6-.1.9-.1 1.3-.1 3.9.2 3.4 2.1-.2.9 3 .4 3.3-.5 1-3.9-6.1-3.1-8.2-2.6-1.9.5-3.9 1.6-4 3.7-.1 1 .2 2 .3 3 0 1.2-.3 2.4.2 3.5Zm14.4 1.9c-.1 1.8-.2 3.6-.2 5.4 0 .9.1 1.8.3 2.8.1.8.4 2 .2 2.8-.2.6 3 .2 3.3-.6.5-1.5-.2-3.4-.3-4.9-.1-1.5 0-2.9.1-4.4 1.7-.1 3.4-.2 5.1 0 .1 1.2.2 2.3.3 3.5.1 1 .2 1.9.2 2.9 0 .9.1 2.1-.2 2.9-.7 1.7 2.7 1.6 3.1.3.6-1.6.4-3.5.3-5.2-.3-2.2-.6-4.2-.6-6.3-.1-3.2-.6-6.3-.6-9.5 0-1.7-3.3-1.1-3.3.3 0 3 .4 6 .6 9.1v.2c-1.6 0-3.3.1-4.9.2.2-3.9-.5-7.8-.4-11.7 0-.5-3.3-.1-3.3.9-.2 3.8.4 7.5.3 11.3Zm14.1 5.3c-.3.3-.2.4 0 .5 0 1.5 0 2.9-.2 4.4-.4.6.4 1 .9 1h.1c.6 0 2.2-.3 2.3-1.1.2-1.8.2-3.5.2-5.3 1.3-1.4 2.4-3.1 3.4-4.7.6 1.2 1.2 2.5 1.7 3.9.7 2.3 1.9 4.4 2.6 6.8.5 1.5 3.8.6 3.3-.9-.7-2.3-1.9-4.5-2.6-6.8-.8-2.3-2-4.4-3-6.6.8-1.6 1.7-3.3 2.5-5 .7-1.5 1.2-3.2 2.6-4.3.5-.4.5-.8-.2-.8-.7-.1-1.7.2-2.3.6-1.3 1-2 2.2-2.7 3.6-.8 1.7-1.6 3.4-2.5 5.1-.1.1-.1.2-.2.4-.4.3-.7.6-.5 1.1-.7 1.3-1.3 2.6-2.1 3.9-.3-4.7-.8-9.3-1-14 0-1.1-3.3-.4-3.3.9.2 5.7 1 11.5 1 17.3Zm31.5-6.2c-.2-.7-1.2-.7-1.9-.6v-.8c-.1-2.2-.1-4.5-.3-6.8-.2-2.1-1.3-2.8-3.3-2.7-2 .1-4.4.4-6.3 1.2-2.2.9-3.4 2.5-3.8 4.8-.5 2.5.2 5.2.3 7.8.1 3 .1 5.9.1 8.9 0 .5 3.3 0 3.3-.9v-7c0-.7 0-1.4-.1-2.1 1.2-.5 3.1 0 4.3.1.9.1 1.8-.1 2.7-.2 0 1.9.1 3.9.2 5.9 0 1 .4 3-.3 3.8-.4.4 1.2.3 1.3.3.7-.1 1.5-.3 1.9-.9.8-.9.4-3.2.3-4.3-.1-1.6-.1-3.2-.1-4.8.8-.4 1.9-1 1.7-1.7Zm-6.6-.2c-1.9 0-3.8-.3-5.7 0-.1-1.1-.2-2.1-.3-3.2-.1-2 .1-4.7 1.9-5.9.5-.3 1.4-.3 2-.4.8-.1 1.6-.3 2.4.2 1 .7.8 3.1.8 4.1 0 1.7.2 3.4.3 5.1-.5.1-1 .1-1.4.1Zm-60.2-11.3c0 .2 0 .4.1.5v.4c.1.2.2.3.4.4.3.2.7.2 1.1.2.4 0 .9-.2 1.2-.4l.2-.2c.4-.3.8-.7.6-1.1-.4-.9-.4-1.9-.3-2.9 0-.8-.8-1.1-1.5-1-.6.1-1.8.5-1.8 1.3s-.1 1.7.1 2.5c-.1.1-.1.2-.1.3Zm61.5 29.2c-1.6-.6-3.3-.6-4.9-.8-1.6-.2-3.2-.4-4.9-.6-1.6.1-3.3 0-5 .1l-4.9.3c-6.5.3-13 .3-19.5.1-6.5-.1-13-.5-19.6-.5-3.3 0-6.6.1-9.9.3-1.6.3-3.2.5-4.9.9-1.6.4-3.1.9-4.8 1 1.6.4 3.3.3 5 .3 1.6 0 3.2.1 4.9.2 3.2-.2 6.5-.2 9.7-.3 6.5 0 13 .3 19.6.5 6.5.1 13.1.2 19.7-.1l4.9-.3c1.6-.1 3.2-.1 4.8-.1 1.6-.1 3.3-.3 4.9-.5 1.7-.2 3.2-.6 4.9-.5h.1v-.6c0 .4 0 .5-.1.6Z"/></symbol><symbol id="htmlacademy" viewBox="0 0 27 35"><path d="M13.6 0h-.1L0 1.4v24.7l13.5 8 13.4-8V1.4L13.6 0ZM25 12.1 13.5 5.3v-.1h-.1l-.1-.1v.1L1.9 12.1v-9l11.5-1.2L25 3.1v9ZM13.4 6.8l11.5 6.7-4.5 2.6-7.1-4.2v1.4l5.9 3.5-.9.5-5-3v1.4l3.8 2.3-.8.5-3-1.8v1.4l1.9 1.1-1.8 1.1L2 13.6l11.4-6.8ZM1.9 15.1l11.4 6.8v1l-7.9-4.7v1.4l8 4.8v1.1l-8-4.7v1.4l8 4.8 8.1-4.9v-5.2l3.4-2v10l-11.5 6.9L1.9 25v-9.9Z"/></symbol><symbol id="fb" viewBox="0 0 15 28"><path d="M11.704 5.255c.998 0 1.997 0 2.697-.302.4-.804.599-1.91.599-3.017-.2 0-.1-.302-.2-.402 0-.201-.3-.201-.3-.403-.3-.2-.499-.402-.699-.603-.699-.201-1.398-.302-2.197-.503-.8 0-1.898-.1-2.598.1-2.597 0-3.995 1.107-5.294 2.414 0 .101 0 .202-.1.202-.6 1.609-.1 3.62-.2 5.632.1.402.1 1.005.2 1.408-.999.301-2.198.402-3.396.502-.3.302-.2 1.107-.2 1.71.1.604.3 1.106.4 1.61.2.2.599.402.799.502.1 0 .1.1.1.1.5.302 1.498 0 2.297.101-.1 2.012.3 3.923 0 5.733 0 .301.3.402.2.804 0 1.006-.1 2.012.2 2.716-.3.503-.5 1.005-.4 1.81.1 0 .1.201.1.302-.1.503.6.2.5.704.2.503-.4.2-.4.503v.905c.5.301 1.498.2 2.297.2.9-.401 2.198-.502 2.797-1.206.5.201.9 0 1.2-.201 0-.302.299-.302.199-.704 0-.302-.2-.503-.1-.905V22.05c-.2-2.313 0-4.928-.3-7.24.9-.101 1.898-.101 2.598-.403.4-.503.4-1.207.5-1.911.199-.201.199-.604.199-1.006.2-.2.1-.704.1-1.106-.1-.603-.2-1.307-.8-1.408-.898-.201-1.997.603-2.996.302 0-1.107-.3-2.313 0-3.42.799-.2 1.498-.402 2.197-.603Zm-3.796 4.827c.1.302.3.503.4.704.099 0 .199 0 .199.1 1.199.101 2.198-.1 3.097-.3 0 1.005-.3 1.709-.5 2.513-.7 0-1.498.302-1.998.201-.3.202-.4.503-.6.704 0 .403.1.503 0 .805-.199.1-.099.604-.199.805v1.508c.1.302-.1.302-.1.503v3.52c-.1.302.1.302.1.503v3.017c.1.302-.1.805.1.905-.1.402-.4 0-.8.1-.499.101-.898.403-1.498.403.1-.402.3-.603.3-1.106 0-.402-.4-.302-.5-.503.2-.604.6-1.106.7-1.81.2-.503.7-1.308.3-1.81-.5-.101-.5.301-.8.402 0 .1 0 .2-.1.2 0 .101 0 .202-.1.202 0 .1-.2.1 0 0 0-.1 0-.201.1-.201 0-.1 0-.201.1-.201v-.302c.4-.604.7-1.207.8-2.011.2-.302.3-.704.4-1.006.199-.302.299-.905.1-1.207-.5 0-.8.302-.9.704-.3-.201.2-.402.1-.704.1-.201.2-.604.3-.805.2-.402.599-1.307 0-1.609-.4 0-.6.201-.7.503-.2.201-.4.402-.5.704-.399-.1-.099-.704-.199-1.106-.1-.503.1-.905 0-1.207-.6-.805-1.998-.1-3.196-.302-.1-.301-.2-1.005-.1-1.207.999-.1 2.497.201 3.196-.2 0-.101 0-.202.1-.202.1-.704-.3-1.006-.5-1.408.2-.804 0-2.011.1-3.017.2-.1.3-.402.5-.603.1-1.006.7-1.509.7-2.515-.3 0-.6-.1-.6.201-.3-.1-.4.503-.5.202-.1-.503.2-.604.3-1.006.6-.402 1.199-.805 1.898-1.207 1.698-.201 4.595-.402 6.094.201.1.604-.3.905-.2 1.509h-1.499c-1.098.2-1.997.704-2.996 1.005-.2.101-.3.302-.5.403 0 .402-.2.603-.3 1.005-.3 1.408-.1 2.615-.1 4.023Z"/></symbol><symbol id="insta" viewBox="0 0 22 22"><path d="M22 12.585c0-2.378-.302-4.755-.302-7.033 0-.793-.1-1.486-.201-2.278-.1-.298-.1-.694-.202-1.09-.302-.198-.2-.594-.503-.792-.402-.199-1.208-.1-1.71-.199-.705 0-1.31-.099-1.913-.198-1.913-.099-4.026-.099-6.04-.099C9.118.896 7.105.797 5.394.5H3.178c-.1 0-.1.1-.201.1-.604 0-1.107.197-1.61.296-.202.1-.403.198-.705.297-.1.199-.503.1-.604.397-.201.198.201.495 0 .594v.891c.201.1 0 .595.1.793v.99c0 1.288.101 2.378.101 3.666.504 2.773.403 6.438.101 9.31.201.595.403 1.09.503 1.685.302.495.302 1.09.705 1.486.503.198 1.208.198 1.912.198.403.099.705.297 1.107.297 2.819-.198 5.536-.198 8.455-.198 2.718.198 5.838.198 8.354-.198.201-.1.1-.495.201-.793-.1-.396.202-.396.202-.792.201-2.08.201-4.458.201-6.934ZM8.915 6.443a9.485 9.485 0 0 1 2.416-.297c.705.1 1.309.297 1.912.496.101.198-.2.495.202.693.1 0 .1 0 .201.099.403 0 .805.198 1.107.396.503.1.503.495 1.107.396-.1.199-.1.496-.1.793.302 1.188.503 2.774.302 4.26-.202.197-.202.396-.302.693-.302.297-.504.792-.806 1.09-.1.197-.302.396-.503.495-.1.198-.201.495-.503.495-.302.198-.604 0-.805-.1-.403.199-.906.298-1.208.595l-2.416-.297c-.201-.1-.503-.297-.805-.297a2.198 2.198 0 0 0-.805-.495c-.1-.1-.302-.1-.503-.199-.202 0-.202-.198-.504-.198-.1-.396-.402-.594-.503-1.09-.201-.296-.302-.792-.503-1.188 0-1.387.1-2.675.402-3.764.302-.594.806-1.09 1.108-1.684.2 0 .402-.1.402-.297.302.099.403-.1.705-.1.201 0 .201-.296.402-.495ZM7.205 3.77c-.101-.297-.101-.694-.101-1.09 0-.297.302-.297.302-.495 0-.1-.101-.1-.202-.1.101-.098.705-.098.806 0 .1.496-.403.496-.504.694 0 .198.302 0 .504.1 0 .89-.101 1.485 0 2.179h-.504c0 .198.202.198.504.198-.101.297.1.396.1.594-.201.198-.704 0-1.107.1 0-.595.302-1.388.201-2.18ZM6.5 2.184c.1 0 .1 0 .201.099.201.297 0 .693-.1.892-.202-.199 0-.694-.101-.991ZM6.7 3.967c-.1-.1-.201-.198-.201-.495.201.099.201.297.201.495Zm0 1.387c-.1.099-.1 0-.1-.198.1-.1.1.099.1.198Zm-.201.198c.201 0 .1.198.201.198 0 .198-.302.198-.403.1.101-.1.202-.2.202-.298ZM4.185 4.363c0-.099 0-.198-.1-.198-.102-.693.1-1.387 0-1.981.301-.198.804 0 1.106-.1v1.09c-.1.1-.201.1-.402.1-.101.297.302.099.402.297 0 .891-.1 1.783.202 2.377-.604-.099-.906.1-1.41.1.101-.595 0-1.388.504-1.586 0-.099-.302 0-.302-.099Zm-.503 0c-.202 0-.202-.495-.101-.594.302 0 .201.495.1.594Zm-.202.99c.1-.296 0-.296.1-.693.202 0 .202.793-.1.694Zm.202-2.08c-.302.1-.302-.297-.202-.396.302 0 .403.298.202.397Zm0-1.089c0 .198-.101.198-.101.297-.201 0-.1-.198-.201-.198.1-.099.2-.099.302-.099ZM3.48 5.849c.1 0 .1.297-.1.198.1 0 .1-.099.1-.198Zm-.704-3.665a.202.202 0 0 1-.403 0h.403Zm-1.007.099c0 .198-.302.198-.402.396-.202-.198.1-.495.402-.396Zm-.402.693c.2-.198.503-.396.704-.594 0-.099.1-.099.1-.198h.202c.1.396-.302.297-.302.495 0 .1-.1.1-.1.198 0 .298.1.595.1.99-.302 0-.302.298-.604.199 0-.396-.201-.594-.1-1.09Zm.1 3.27V4.66c.202-.198.403-.396.604-.495.302.495.201 1.387.503 1.882-.402.1-.805.1-1.107.198ZM19.786 17.24c-.101.99-.202 1.98-.403 2.773-2.919.1-6.039 0-8.958.198-.201 0-.302 0-.201-.198-.302 0-.302.198-.503.198.2-.297.402-.891.2-1.288-.804 0-.804.793-1.106 1.288-.705-.099-1.107.1-1.812.1.201-.694.705-.991.906-1.685-.403-.495-1.007.1-1.208.496-.201.495-.604.792-.805 1.287H4.889c.202-.495.504-.891.806-1.386.2-.496.603-.694.704-1.387-.201-.297-.402 0-.704 0-.101.198-.302.297-.403.495-.201.396-.503.694-.705 1.09-.2.198-.302 0-.503.198-.402.297-.604.693-1.006.99-.202-.099 0-.396.2-.396 0-.198-.1-.495.102-.594.1-.396.2-.595.402-.892.1-.693.503-1.188.705-1.882-.604.1-.705.595-1.007.99-.201.397-.503.793-.704 1.288-.202-.098 0-.594-.101-.792.1-.594.302-1.09.403-1.684.1-.198.2-.495.2-.792.202-.199 0-.595-.1-.793-.201 0-.402.1-.503.297-.201 0-.201.496-.302.297 0-2.575-.503-4.754-.503-7.33 0-.297-.201-.396-.201-.693 1.61 0 3.12.099 4.83.198-.1.1-.2.297-.301.396-.1.1-.201.198-.403.297-.604 1.684-1.006 3.963-.604 6.142.202.594.604.99 1.007 1.387.906.495 1.61 1.09 2.516 1.684 1.711.396 3.825.396 5.536 0 .201-.1.503-.198.704-.396 1.41-1.19 2.819-2.477 3.02-4.854V10.9c-.201-1.585-.705-2.873-1.711-3.566.302-.198 1.107 0 1.711.099h.704c.403 0 .906-.1 1.41 0 .1.198.1.495.2.792-.1 1.684-.2 3.27-.2 5.052.1.496.1.99.2 1.387-.2.793-.301 1.684-.502 2.576Zm.402-11.095c-.604-.099-1.207-.297-1.912-.396.1-.297.805 0 1.006-.198.403-.198.302-.892.302-1.486 0-.297.101-.594.101-1.09-.403-.99-1.812-.396-2.919-.495-.201.694-.503 1.783-.302 2.675.202.495 1.007.297 1.51.495-.1.297-.705.099-1.006.099-.302-.1-.705-.1-1.007-.198-2.315.099-4.328 0-6.542.198.1-1.189.1-2.476-.101-3.566h3.12c-.302.396-.906.495-1.308.792-.403.199-.906.496-1.107.892.2.099.503-.198.805-.396.402-.1.503-.397.805-.496.403-.396 1.107-.594 1.711-.891.403 0 .705 0 1.007.099 1.308 0 2.516.099 3.824.099.604.1 1.51.1 2.013.297l.302.892c-.1.99-.302 1.783-.302 2.674ZM14.25 2.481c.1-.099 0-.099 0 0Zm0 0c-.503.198-1.007.297-1.41.694.504-.199 1.108-.298 1.41-.694Zm1.107.594c.1-.099 0-.099 0 0Zm-1.812.892c.705-.198 1.208-.594 1.711-.892-.402 0-.604.298-1.006.397-.1.198-.503.198-.705.495Zm-.704-.792c-.1 0 .1.099 0 0Zm-.604.594c.1-.1 0-.1 0 0Zm-.1.099c.1 0 .1-.1 0 0 0-.1 0-.1 0 0Zm-.101 0c.1 0 .1 0 0 0 0-.1 0 0 0 0Zm-.806.594c.302-.099.604-.297.806-.594-.302.198-.604.396-.806.594Zm2.315.99c.504 0 .705-.395 1.208-.494.302-.298.805-.397 1.007-.793-.604 0-.806.396-1.208.495-.302.397-.805.496-1.007.793Zm-2.315-.99c-.302 0 0 .297 0 0Zm-.604.396c.101 0 .202 0 0 0 .101-.099 0 0 0 0Zm2.92.595c-.202.099 0 .099 0 0Zm-1.208 1.783c-.202-.198-.705-.198-1.007-.396-.704 0-1.208.099-1.711.198-.302.198-.604.297-.906.495-.302.198-.403.396-.805.495-.201.198-.403.496-.705.595 0 .198-.201.297-.302.396-.1.099-.1.297-.2.396 0 .1 0 .297-.102.297.101 1.486.302 2.873.705 4.16.302.595 1.006.793 1.41 1.288.603.297 1.308.397 2.113.496.302-.1.604-.1.906-.1 1.207-.197 2.113-.693 2.818-1.386.1-.297.302-.495.503-.694-.302-.693.302-1.09.503-1.585 0-1.287-.201-2.476-.604-3.367-.302-.595-.905-.793-1.409-1.09-.1 0-.201 0-.201-.1-.201-.098-.704-.197-1.006-.098Zm-3.423 4.358c-.1-.099-.1-.198-.2-.396.301-.099.2.198.2.396Zm.101.298c0-.1.1 0 0 0 0 .198 0 .099 0 0Zm.403-2.08c0-.1.1 0 0 0 .1.098 0 .098 0 0Zm1.71-2.08c-.2.296 0 .593.101.792-.302 0-.604-.793-.1-.793Zm.403 3.862c-.1 0 0 0 0 0 .101 0 0 .1 0 0Zm.705 2.873c0-.1.1 0 .201 0 0 .099-.201.099-.201 0Zm2.214-2.476c-.201-.1-.1.198-.402.198.1-.198.1-.297.2-.496.202 0 .303.1.202.298Zm-1.107-3.765c.201.1.403.199.604.397.1.198.201.396.402.495.101.792.202 1.486.202 2.377-.302.1-.403.298-.705.397-.805 0-1.409-.199-1.912-.496-.201-.297-.403-.495-.503-.792v-1.09c.201-.198.302-.396.503-.594.201-.1.503-.198.503-.595 0-.099-.1-.099-.1-.198.2 0 .2.198.402.198.201 0 .302-.198.604-.099Z"/></symbol><symbol id="twitter" viewBox="0 0 23 20"><path d="M22.957 4.242c-.194-.404-.874-.303-1.36-.404h-1.07c.098-.404.292-.606.487-1.01.097-.404.291-.707.194-1.313L21.5.91c.097-.1.194-.505.097-.707C21.5 0 21.305 0 21.014 0c-.097 0-.195.101-.195.101-.388.404-.777 1.01-1.263 1.414h-.097c-.097 0 0 0-.097.101s-.292.202-.389.202c-.291.202-.486.404-.874.505-.486-.202-1.166-.303-1.846-.404-1.167.101-2.235.202-2.916.707-.874.303-1.457 1.01-2.04 1.616 0 .303-.292.404-.389.707 0 0 0 .102-.097.102 0 .202-.097.303-.097.505 0 .1.194.404 0 .505-.777-.101-1.458-.606-2.04-1.01-.68-.405-1.458-.607-2.041-1.112-.68-.303-1.263-.808-1.75-1.313-.194-.303-.485-.505-.68-.909-.388-.202-.194-.909-.68-.909-.291 0-.291.202-.388.404-.097.202-.389.202-.389.505 0 0 0 .101-.097.101-.195 1.111-.486 2.02-.486 3.334.097.404.292.707.583 1.01-.389.1-.68.202-.875.505-.097 1.11.39 1.616.68 2.323.098.404.39.707.584 1.01 0 .202.194.303.291.404 0 .101.097.101.097.202s.292.202.098.202c-.39.101-.972.101-1.264.404a2.154 2.154 0 0 0 0 1.111c0 .202.292.303.292.505.486.404 1.069.707 1.555 1.111.583.202 1.166.303 1.846.404-.097.303-.292.607-.583.707-.778.404-1.75.506-2.624.708-.583 0-.972.202-1.555.202-.291.1-.874.1-1.068.202-.098.1-.098.1-.195.202-.097.404.097.707.389.909 0 .303.194.303.389.404.097.202.291.303.388.404.486.505 1.263.808 1.847 1.11.777.203 1.554.405 2.429.506.874.101 1.846.101 2.72.202h.972c.486.101 1.166.101 1.846.101.097-.101.292-.101.486-.101.486-.303 1.166-.404 1.555-.707.583-.202.972-.606 1.555-.91.874-.807 1.846-1.312 2.429-2.423.194-.202.389-.405.389-.707.291-.202.388-.505.582-.708.39-.404.68-.909.972-1.414.292-.505.583-1.11.875-1.616 0-.404.291-.505.291-.909.195-.202.195-.707.389-.909 0-.303 0-.404.097-.606 0-1.313 0-2.424-.291-3.434.583-.202 1.166-.303 1.554-.607.778.304 1.263-.1 1.07-.707Zm-3.304 4.04c-.194.91-.583 1.415-.971 2.021.097.404-.098.505-.098.91-.194.302-.291.706-.388 1.01-.195.302-.292.605-.486.908-.389.505-.777 1.111-1.166 1.617-.389.606-.875 1.01-1.263 1.515-.389.505-.875.909-1.36 1.313-.486.202-.875.404-1.264.707-.194.1-.486.202-.68.303-.194.1-.486.1-.68.303-1.069.1-2.235.202-3.498.1-.972-.1-2.04-.201-2.915-.403s-1.458-.707-2.235-1.01c.194-.202.583-.202.972-.202 0-.202.388 0 .388-.101.292.1.292-.101.486-.101.583-.202 1.166-.303 1.652-.606.291-.101.389-.404.68-.606 0-.202.097-.303.194-.404 0-.303.195-.404.098-.808.097-.202.291-.304.291-.708-.097-.1-.097-.303-.291-.404 0-.202-.39-.1-.39-.202-.29 0-.388 0-.582-.1-.194 0-.486.1-.486-.102-.777 0-1.263-.404-1.846-.707.389-.303.972-.404 1.263-.707.486-.1 1.069-.1 1.069-.707 0-.707-.777-.707-1.263-.808-.778-.707-1.166-1.717-1.75-2.525.195-.202.584-.202.68-.404.487.1.487-.303.681-.505 0-.505-.291-.606-.583-.808-.291-.202-.486-.505-.68-.707 0-.809 0-1.718.097-2.425.097 0 .097 0 .097.101.195.404.583.808.778 1.212.485.404.874.91 1.554 1.112.486.404 1.07.606 1.555 1.01.583.303 1.166.606 1.652.909.68.202 1.069.707 1.943.606l.583-.303c.292-.505-.097-1.111.097-1.616.292-.707.778-1.01 1.264-1.516.291-.202.583-.303.777-.505.291-.1.68-.202.972-.404.388 0 .68-.1.971-.1h1.264c.194.1.485.1.68.1.194.101.388.303.68.404.777.707 1.263 1.718 1.36 3.03 0 .304.097.708.097 1.314Zm.292-5.656c-.097.303-.194.707-.583.808 0-.1-.097-.1-.097-.202 0-.202.194-.202.291-.303.097-.1.195-.303.389-.303.097 0 0-.1 0 0ZM14.6 5.656c.194.102.291.304.485.405.098.202.292.303.583.404 0-.202.292 0 .39-.202.194 0 .194-.202.29-.303 0-.505-.096-1.01-.388-1.314-.68-.505-1.652 0-1.36 1.01Z"/></symbol></svg>